<?xml version="1.0" encoding="UTF-8"?>
<!DOCTYPE svg PUBLIC "-//W3C//DTD SVG 1.1//EN" "http://www.w3.org/Graphics/SVG/1.1/DTD/svg11.dtd">
<svg xmlns="http://www.w3.org/2000/svg" version="1.1" width="512px" height="512px" style="shape-rendering:geometricPrecision; text-rendering:geometricPrecision; image-rendering:optimizeQuality; fill-rule:evenodd; clip-rule:evenodd" xmlns:xlink="http://www.w3.org/1999/xlink">
<g><path style="opacity:1" fill="#385bfc" d="M -0.5,-0.5 C 170.167,-0.5 340.833,-0.5 511.5,-0.5C 511.5,170.167 511.5,340.833 511.5,511.5C 340.833,511.5 170.167,511.5 -0.5,511.5C -0.5,340.833 -0.5,170.167 -0.5,-0.5 Z"/></g>
<g><path style="opacity:1" fill="#8a9ce6" d="M 319.5,111.5 C 316.373,112.581 313.04,113.247 309.5,113.5C 312.507,111.825 315.84,111.159 319.5,111.5 Z"/></g>
<g><path style="opacity:1" fill="#fdfdfd" d="M 319.5,111.5 C 321.478,122.451 322.144,133.784 321.5,145.5C 305.611,147.562 294.444,155.895 288,170.5C 287.506,172.134 287.34,173.801 287.5,175.5C 286.518,178.962 286.185,182.629 286.5,186.5C 309.167,186.5 331.833,186.5 354.5,186.5C 374.078,220.466 392.744,255.133 410.5,290.5C 392.154,325.193 373.821,359.859 355.5,394.5C 340.657,394.829 325.99,394.496 311.5,393.5C 329.294,359.211 347.294,325.044 365.5,291C 353.724,266.61 341.057,242.777 327.5,219.5C 314.01,218.504 300.344,218.171 286.5,218.5C 285.501,259.663 285.168,300.997 285.5,342.5C 272.833,342.5 260.167,342.5 247.5,342.5C 247.5,301.167 247.5,259.833 247.5,218.5C 241.5,218.5 235.5,218.5 229.5,218.5C 229.5,208.167 229.5,197.833 229.5,187.5C 235.69,187.823 241.69,187.49 247.5,186.5C 247.972,152.188 264.306,129.022 296.5,117C 300.716,115.316 305.049,114.149 309.5,113.5C 313.04,113.247 316.373,112.581 319.5,111.5 Z"/></g>
<g><path style="opacity:1" fill="#fdfefd" d="M 101.5,332.5 C 100.71,331.599 99.7095,330.932 98.5,330.5C 97.5027,351.66 97.1694,372.993 97.5,394.5C 85.1667,394.5 72.8333,394.5 60.5,394.5C 60.5,325.5 60.5,256.5 60.5,187.5C 70.8333,187.5 81.1667,187.5 91.5,187.5C 93.7896,190.292 96.2896,192.959 99,195.5C 131.977,176.216 164.477,177.049 196.5,198C 227.24,224.258 236.073,256.758 223,295.5C 204.806,331.022 175.64,347.522 135.5,345C 123.39,342.771 112.056,338.604 101.5,332.5 Z"/></g>
<g><path style="opacity:1" fill="#435dd6" d="M 287.5,175.5 C 287.5,178.833 287.5,182.167 287.5,185.5C 310.006,185.169 332.34,185.503 354.5,186.5C 331.833,186.5 309.167,186.5 286.5,186.5C 286.185,182.629 286.518,178.962 287.5,175.5 Z"/></g>
<g><path style="opacity:1" fill="#445cda" d="M 466.5,189.5 C 466.414,188.504 466.748,187.671 467.5,187C 460,186.833 452.5,186.667 445,186.5C 436.933,186.533 429.1,187.199 421.5,188.5C 421.238,187.022 421.571,185.689 422.5,184.5C 437.785,185.484 453.118,185.817 468.5,185.5C 468.843,187.483 468.176,188.817 466.5,189.5 Z"/></g>
<g><path style="opacity:1" fill="#fbfcfd" d="M 466.5,189.5 C 451.353,217.123 436.187,244.789 421,272.5C 413.182,259.031 406.015,245.198 399.5,231C 406.718,216.73 414.051,202.563 421.5,188.5C 429.1,187.199 436.933,186.533 445,186.5C 452.5,186.667 460,186.833 467.5,187C 466.748,187.671 466.414,188.504 466.5,189.5 Z"/></g>
<g><path style="opacity:1" fill="#b9c8ff" d="M 247.5,186.5 C 241.69,187.49 235.69,187.823 229.5,187.5C 229.5,197.833 229.5,208.167 229.5,218.5C 229.167,218.5 228.833,218.5 228.5,218.5C 228.5,207.833 228.5,197.167 228.5,186.5C 234.833,186.5 241.167,186.5 247.5,186.5 Z"/></g>
<g><path style="opacity:1" fill="#c6d1ff" d="M 91.5,187.5 C 81.1667,187.5 70.8333,187.5 60.5,187.5C 60.5,256.5 60.5,325.5 60.5,394.5C 72.8333,394.5 85.1667,394.5 97.5,394.5C 97.1694,372.993 97.5027,351.66 98.5,330.5C 98.5,351.833 98.5,373.167 98.5,394.5C 85.6774,395.495 72.6774,395.829 59.5,395.5C 59.5,325.833 59.5,256.167 59.5,186.5C 70.3464,186.172 81.0131,186.506 91.5,187.5 Z"/></g>
<g><path style="opacity:1" fill="#5166e1" d="M 156.5,220.5 C 148.152,219.427 139.819,219.427 131.5,220.5C 135.203,218.945 139.203,218.278 143.5,218.5C 148.107,218.316 152.44,218.983 156.5,220.5 Z"/></g>
<g><path style="opacity:1" fill="#395bfb" d="M 156.5,220.5 C 172.814,225.315 183.314,235.982 188,252.5C 191.248,270.368 186.415,285.535 173.5,298C 166.372,303.275 158.372,306.442 149.5,307.5C 143.5,307.167 137.5,306.833 131.5,306.5C 112.879,300.62 102.212,287.953 99.5,268.5C 99.335,265.15 99.5017,261.817 100,258.5C 101.599,253.591 102.765,248.591 103.5,243.5C 109.235,231.43 118.568,223.763 131.5,220.5C 139.819,219.427 148.152,219.427 156.5,220.5 Z"/></g>
<g><path style="opacity:1" fill="#fefff1" d="M 248.5,221.5 C 249.833,240.155 250.5,259.155 250.5,278.5C 250.167,297.5 249.833,316.5 249.5,335.5C 248.5,297.506 248.167,259.506 248.5,221.5 Z"/></g>
<g><path style="opacity:1" fill="#6980ec" d="M 228.5,218.5 C 228.833,218.5 229.167,218.5 229.5,218.5C 235.5,218.5 241.5,218.5 247.5,218.5C 247.5,259.833 247.5,301.167 247.5,342.5C 247.5,342.833 247.5,343.167 247.5,343.5C 246.501,302.337 246.168,261.003 246.5,219.5C 240.31,219.823 234.31,219.49 228.5,218.5 Z"/></g>
<g><path style="opacity:1" fill="#d4e2ff" d="M 286.5,218.5 C 286.5,258.5 286.5,298.5 286.5,338.5C 286.5,340.167 286.5,341.833 286.5,343.5C 273.5,343.5 260.5,343.5 247.5,343.5C 247.5,343.167 247.5,342.833 247.5,342.5C 260.167,342.5 272.833,342.5 285.5,342.5C 285.168,300.997 285.501,259.663 286.5,218.5 Z"/></g>
<g><path style="opacity:1" fill="#5266d6" d="M 286.5,218.5 C 300.344,218.171 314.01,218.504 327.5,219.5C 314.167,219.5 300.833,219.5 287.5,219.5C 287.832,259.337 287.499,299.004 286.5,338.5C 286.5,298.5 286.5,258.5 286.5,218.5 Z"/></g>
<g><path style="opacity:1" fill="#6a78e8" d="M 103.5,243.5 C 102.765,248.591 101.599,253.591 100,258.5C 99.5017,261.817 99.335,265.15 99.5,268.5C 97.9022,259.751 99.2355,251.418 103.5,243.5 Z"/></g>
<g><path style="opacity:1" fill="#546dd5" d="M 131.5,306.5 C 137.5,306.833 143.5,307.167 149.5,307.5C 147.359,308.163 145.025,308.497 142.5,308.5C 138.553,308.637 134.886,307.97 131.5,306.5 Z"/></g>
<g><path style="opacity:1" fill="#435ce2" d="M 98.5,330.5 C 99.7095,330.932 100.71,331.599 101.5,332.5C 99.8369,352.98 98.8369,373.646 98.5,394.5C 98.5,373.167 98.5,351.833 98.5,330.5 Z"/></g>
<g><path style="opacity:1" fill="#a1b1f7" d="M 311.5,393.5 C 325.99,394.496 340.657,394.829 355.5,394.5C 340.661,395.826 325.661,395.826 310.5,394.5C 310.624,393.893 310.957,393.56 311.5,393.5 Z"/></g>
</svg>
